<svg width="50" height="50" viewBox="0 0 50 50" fill="none" xmlns="http://www.w3.org/2000/svg">
<rect width="50" height="50" rx="25" fill="#F2F3FE"/>
<path d="M27.018 20.364C27.0694 20.1719 27.0424 19.9671 26.943 19.7949C26.8435 19.6226 26.6796 19.497 26.4875 19.4455C26.2953 19.3941 26.0906 19.421 25.9184 19.5205C25.7461 19.62 25.6204 19.7839 25.569 19.976L22.981 29.636C22.9295 29.8283 22.9566 30.0331 23.0561 30.2055C23.1557 30.3778 23.3197 30.5036 23.512 30.555C23.7043 30.6065 23.9091 30.5794 24.0815 30.4798C24.2538 30.3803 24.3795 30.2163 24.431 30.024L27.018 20.364ZM29.03 21.47C28.9613 21.3963 28.8785 21.3372 28.7865 21.2962C28.6945 21.2552 28.5952 21.2332 28.4945 21.2314C28.3938 21.2296 28.2938 21.2482 28.2004 21.2859C28.107 21.3236 28.0222 21.3798 27.9509 21.451C27.8797 21.5222 27.8236 21.607 27.7859 21.7004C27.7481 21.7938 27.7296 21.8938 27.7314 21.9945C27.7332 22.0952 27.7552 22.1945 27.7962 22.2865C27.8372 22.3785 27.8963 22.4613 27.97 22.53L28.141 22.702C28.823 23.384 29.28 23.842 29.575 24.23C29.858 24.6 29.922 24.816 29.922 25C29.922 25.184 29.858 25.4 29.575 25.77C29.28 26.157 28.823 26.616 28.141 27.298L27.97 27.47C27.8963 27.5387 27.8372 27.6215 27.7962 27.7135C27.7552 27.8055 27.7332 27.9048 27.7314 28.0055C27.7296 28.1062 27.7481 28.2062 27.7859 28.2996C27.8236 28.393 27.8797 28.4778 27.9509 28.549C28.0222 28.6203 28.107 28.6764 28.2004 28.7141C28.2938 28.7519 28.3938 28.7704 28.4945 28.7686C28.5952 28.7668 28.6945 28.7448 28.7865 28.7038C28.8785 28.6628 28.9613 28.6037 29.03 28.53L29.239 28.322C29.874 27.687 30.404 27.157 30.768 26.68C31.152 26.176 31.422 25.644 31.422 25C31.422 24.356 31.152 23.824 30.768 23.32C30.404 22.843 29.874 22.313 29.238 21.678L29.03 21.47ZM20.97 21.47C21.1122 21.3375 21.3002 21.2654 21.4945 21.2688C21.6888 21.2723 21.8742 21.351 22.0116 21.4884C22.149 21.6258 22.2277 21.8112 22.2312 22.0055C22.2346 22.1998 22.1625 22.3878 22.03 22.53L21.859 22.702C21.177 23.384 20.721 23.842 20.425 24.23C20.142 24.6 20.079 24.816 20.079 25C20.079 25.184 20.142 25.4 20.425 25.77C20.721 26.157 21.177 26.616 21.859 27.298L22.031 27.47C22.1026 27.5392 22.1597 27.622 22.1989 27.7135C22.2382 27.8051 22.2588 27.9035 22.2597 28.0031C22.2605 28.1026 22.2415 28.2014 22.2037 28.2936C22.1659 28.3857 22.1102 28.4694 22.0398 28.5398C21.9693 28.6102 21.8856 28.6658 21.7934 28.7035C21.7012 28.7412 21.6024 28.7601 21.5028 28.7592C21.4032 28.7583 21.3048 28.7375 21.2133 28.6982C21.1219 28.6588 21.0391 28.6017 20.97 28.53L20.762 28.322C20.126 27.687 19.596 27.157 19.232 26.68C18.848 26.176 18.579 25.644 18.579 25C18.579 24.356 18.849 23.824 19.232 23.32C19.596 22.843 20.126 22.313 20.762 21.678L20.97 21.47Z" fill="#0829F1"/>
<path fill-rule="evenodd" clip-rule="evenodd" d="M24.943 14.25C22.634 14.25 20.825 14.25 19.413 14.44C17.969 14.634 16.829 15.04 15.934 15.934C15.039 16.829 14.634 17.969 14.44 19.414C14.25 20.825 14.25 22.634 14.25 24.943V25.057C14.25 27.366 14.25 29.175 14.44 30.587C14.634 32.031 15.04 33.171 15.934 34.066C16.829 34.961 17.969 35.366 19.414 35.56C20.825 35.75 22.634 35.75 24.943 35.75H25.057C27.366 35.75 29.175 35.75 30.587 35.56C32.031 35.366 33.171 34.96 34.066 34.066C34.961 33.171 35.366 32.031 35.56 30.586C35.75 29.175 35.75 27.366 35.75 25.057V24.943C35.75 22.634 35.75 20.825 35.56 19.413C35.366 17.969 34.96 16.829 34.066 15.934C33.171 15.039 32.031 14.634 30.586 14.44C29.175 14.25 27.366 14.25 25.057 14.25H24.943ZM16.995 16.995C17.565 16.425 18.335 16.098 19.614 15.926C20.914 15.752 22.622 15.75 25 15.75C27.378 15.75 29.086 15.752 30.386 15.926C31.665 16.098 32.436 16.426 33.006 16.995C33.575 17.565 33.902 18.335 34.074 19.614C34.248 20.914 34.25 22.622 34.25 25C34.25 27.378 34.248 29.086 34.074 30.386C33.902 31.665 33.574 32.436 33.005 33.006C32.435 33.575 31.665 33.902 30.386 34.074C29.086 34.248 27.378 34.25 25 34.25C22.622 34.25 20.914 34.248 19.614 34.074C18.335 33.902 17.564 33.574 16.994 33.005C16.425 32.435 16.098 31.665 15.926 30.386C15.752 29.086 15.75 27.378 15.75 25C15.75 22.622 15.752 20.914 15.926 19.614C16.098 18.335 16.426 17.565 16.995 16.995Z" fill="#0829F1"/>
</svg>
